<?xml version="1.0" encoding="utf-8"?>
<!-- Generator: Adobe Illustrator 20.1.0, SVG Export Plug-In . SVG Version: 6.00 Build 0)  -->
<svg version="1.1" id="Layer_1" xmlns="http://www.w3.org/2000/svg" xmlns:xlink="http://www.w3.org/1999/xlink" x="0px" y="0px"
	 viewBox="0 0 117.2 89.9" style="enable-background:new 0 0 117.2 89.9;" xml:space="preserve">
<style type="text/css">
	.st0{fill-rule:evenodd;clip-rule:evenodd;fill:#174D57;}
	.st1{fill:#174D57;}
</style>
<g>
	<path class="st0" d="M37.7,18c-0.7-4.5-4.7-6.7-9.1-6.7c-4.4,0-8.1,2.2-8.3,6.7c-0.1,2.3,0.8,7.9,2,10c1.1,1.8,3.5,3.6,6.1,4.2
		c1.2,0.2,1.6,0.2,2.8,0c2.5-0.6,4.7-2.4,5.6-4.2C37.9,25.9,38.1,20.4,37.7,18L37.7,18z M70.6,65.8 M70.6,73.6l0-7.8H45.1l0.2,7.8
		H70.6 M97.5,55.6 M89.6,55.8l0-48H7.8v57.9H14L13.1,48c-0.2-5.9,2.8-13,8.8-14.3c4.2-0.9,14.3,0.6,16.7,3.2
		c3.2,3.6,5.9,10.1,8,14.2l11.6,0.4c0.8,0,1.5,0.3,2.1,0.7l22.4-13.6l1.1,1.6L62.2,55.5c0.2,2.1-1.4,4.2-4.7,4.3l-16.2,0L40.7,52
		l-0.9-0.5l0.6,22.1H5.1c-2.8,0-5.1-2.3-5.1-5.1V5.1C0,2.3,2.3,0,5.1,0h87.3c2.8,0,5.1,2.3,5.1,5.1l0,50.7H89.6z"/>
	<g>
		<g>
			<path class="st1" d="M85.4,79.4l-1.9-4.2c-0.7-1.6-1-2.1-1.5-3.6c0.1,0.8,0.1,1.5,0.1,2.9l0.1,4.9H80v-11h2.4l2.1,4.4
				c0.4,0.9,0.8,1.8,1.2,3.1c0-0.6-0.2-2.4-0.2-3l0-4.5h2.1v11H85.4z"/>
			<path class="st1" d="M89.9,79.4v-11h6.3l-0.3,1.8h-3.8v2.5h3.1v1.8h-3.1v2.9h4.2v1.9H89.9z"/>
			<path class="st1" d="M104.8,68.5l1,4.9c0.1,0.6,0.4,2.2,0.5,2.9c0.1-0.7,0.4-2.8,0.6-3.6l0.9-4.2h2.3l-2.7,11.1H105l-1-4.5
				c-0.2-0.9-0.4-2.4-0.5-3.2c-0.2,1.5-0.4,2.5-0.5,3.2l-0.9,4.5h-2.5l-2.6-11.1h2.3l0.9,4.3c0.3,1.2,0.5,2.6,0.6,3.6
				c0.2-1.3,0.2-1.8,0.6-3.5l1-4.4H104.8z"/>
		</g>
		<path class="st1" d="M112.8,58.1H77.4c-2.5,0-4.4,2-4.4,4.4v23c0,2.5,2,4.4,4.4,4.4h35.4c2.4,0,4.4-2,4.4-4.4v-23
			C117.2,60.1,115.2,58.1,112.8,58.1z M112.8,86.3H77.4c-0.5,0-0.8-0.4-0.8-0.8v-23c0-0.5,0.4-0.8,0.8-0.8h35.4
			c0.5,0,0.8,0.4,0.8,0.8v23C113.6,86,113.2,86.3,112.8,86.3z"/>
	</g>
</g>
</svg>
