<?xml version="1.0" encoding="utf-8"?>
<!-- Generator: Adobe Illustrator 20.1.0, SVG Export Plug-In . SVG Version: 6.00 Build 0)  -->
<svg version="1.1" id="Layer_1" xmlns="http://www.w3.org/2000/svg" xmlns:xlink="http://www.w3.org/1999/xlink" x="0px" y="0px"
	 viewBox="0 0 106 90" style="enable-background:new 0 0 106 90;" xml:space="preserve">
<style type="text/css">
	.st0{fill-rule:evenodd;clip-rule:evenodd;fill:#174D57;}
</style>
<path class="st0" d="M0,86.3h1.9l0.9-5.6C3,79.6,3.9,78.5,5,78.2l6.7-2.2c0.8-0.3,1.6-1,1.6-1.9c-1-1.1-1.3-2.5-1.6-3.7l-0.5-0.3
	c-0.6-1.7-0.8-3.1-0.7-4.5l0.3-0.3c-0.1-1.2-0.1-3.4,0.5-4.5c2.2-4.1,9.5-4.1,11.7,0c0.6,1.1,0.6,3.3,0.5,4.5l0.3,0.3
	c0.1,1.4-0.1,2.8-0.7,4.5l-0.5,0.3c-0.3,1.3-0.6,2.7-1.6,3.7c0,0.7,0.6,1.6,1.4,1.8l6.9,2.3c1.1,0.3,2,1.4,2.2,2.4l0.9,5.6h4.2
	l0.9-5.6c0.3-1.1,1.2-2.1,2.2-2.4l6.7-2.2c0.8-0.3,1.6-1,1.6-1.9c-1-1.1-1.3-2.5-1.6-3.7l-0.5-0.3c-0.6-1.7-0.8-3.1-0.7-4.5l0.3-0.3
	c-0.1-1.2-0.1-3.4,0.5-4.5c2.2-4.1,9.5-4.1,11.7,0c0.6,1.1,0.6,3.3,0.5,4.5l0.3,0.3c0.1,1.4-0.1,2.8-0.7,4.5l-0.5,0.3
	c-0.3,1.3-0.6,2.7-1.6,3.7c0,0.7,0.6,1.6,1.4,1.8l6.9,2.3c1.1,0.3,2,1.4,2.2,2.4l0.9,5.6h4.2l0.9-5.6c0.3-1.1,1.2-2.1,2.2-2.4
	l6.7-2.2c0.8-0.3,1.6-1,1.6-1.9c-1-1.1-1.3-2.5-1.6-3.7l-0.5-0.3c-0.6-1.7-0.8-3.1-0.7-4.5l0.3-0.3c-0.1-1.2-0.1-3.4,0.5-4.5
	c2.2-4.1,9.5-4.1,11.7,0c0.6,1.1,0.6,3.3,0.5,4.5l0.3,0.3c0.1,1.4-0.1,2.8-0.7,4.5l-0.5,0.3c-0.3,1.3-0.6,2.7-1.6,3.7
	c0,0.7,0.6,1.6,1.4,1.8l6.9,2.3c1.1,0.3,2,1.4,2.2,2.4l0.9,5.6h3.5V90H0V86.3L0,86.3z M59.8,59.3c2,3.2,1.5,8.9,0.3,12.3h19
	c-1.3-3.6-1.8-9.6,0.6-12.8l-3.9-1.3c-0.7-0.2-1.4-1.1-1.4-1.8c1-1.1,1.3-2.5,1.6-3.7l0.5-0.3c0.6-1.7,0.8-3.1,0.7-4.5L76.8,47
	c0.1-1.2,0.1-3.4-0.5-4.5c-2.2-4.1-9.5-4.1-11.7,0C64,43.5,64,45.8,64.1,47l-0.3,0.3c-0.1,1.4,0.1,2.8,0.7,4.5l0.5,0.3
	c0.3,1.3,0.6,2.7,1.6,3.7c0,0.9-0.8,1.6-1.6,1.9L59.8,59.3L59.8,59.3z M24.9,59.3c2,3.2,1.5,8.9,0.3,12.3h19
	c-1.3-3.6-1.8-9.6,0.6-12.8l-3.9-1.3c-0.7-0.2-1.4-1.1-1.4-1.8c1-1.1,1.3-2.5,1.6-3.7l0.5-0.3c0.6-1.7,0.8-3.1,0.7-4.5L41.9,47
	c0.1-1.2,0.1-3.4-0.5-4.5c-2.2-4.1-9.5-4.1-11.7,0c-0.6,1.1-0.6,3.3-0.5,4.5l-0.3,0.3c-0.1,1.4,0.1,2.8,0.7,4.5L30,52
	c0.3,1.3,0.6,2.7,1.6,3.7c0,0.9-0.8,1.6-1.6,1.9L24.9,59.3L24.9,59.3z M19.8,37.5V0c22.1,0,44.2,0,66.3,0v37.5H53.8l-0.6-4
	c-0.2-1-1.1-1.9-2-2.2l-6.3-2.1c-0.7-0.2-1.2-1-1.2-1.7c0.9-1,1.2-2.3,1.4-3.4l0.4-0.2c0.6-1.5,0.7-2.9,0.7-4.1l-0.3-0.2
	c0.1-1.1,0-3.1-0.5-4.1c-2-3.8-8.6-3.8-10.7,0c-0.5,1-0.6,3-0.5,4.1l-0.3,0.2c-0.1,1.2,0.1,2.6,0.7,4.1l0.4,0.2
	c0.3,1.1,0.5,2.4,1.4,3.4c0,0.8-0.7,1.5-1.5,1.7l-6.1,2c-1,0.3-1.8,1.2-2,2.2l-0.6,4H19.8z"/>
</svg>
