<?xml version="1.0" encoding="utf-8"?>
<!-- Generator: Adobe Illustrator 20.1.0, SVG Export Plug-In . SVG Version: 6.00 Build 0)  -->
<svg version="1.1" id="Layer_1" xmlns="http://www.w3.org/2000/svg" xmlns:xlink="http://www.w3.org/1999/xlink" x="0px" y="0px"
	 viewBox="0 0 119 90" style="enable-background:new 0 0 119 90;" xml:space="preserve">
<style type="text/css">
	.st0{fill-rule:evenodd;clip-rule:evenodd;fill:#174D57;}
</style>
<path class="st0" d="M46.1,22.1c-0.8-5.5-5.7-8.2-11.1-8.2c-5.3,0-9.9,2.7-10.1,8.2c-0.1,2.9,0.9,9.6,2.5,12.2
	c1.3,2.2,4.3,4.4,7.4,5.1c1.5,0.2,1.9,0.2,3.4,0c3.1-0.7,5.8-2.9,6.8-5.1C46.3,31.7,46.5,24.9,46.1,22.1L46.1,22.1z M6.2,0h106.5
	c3.4,0,6.2,2.8,6.2,6.2v77.5c0,3.4-2.8,6.2-6.2,6.2H55.3l-0.2-9.6h54.3V9.6H9.6v70.8h7.5L16,58.7c-0.2-7.2,3.5-15.9,10.8-17.5
	c5.1-1.1,17.5,0.7,20.4,3.9c3.9,4.4,7.2,12.4,9.8,17.3l14.2,0.5c1,0.1,1.9,0.3,2.6,0.8L101.1,47l1.3,1.9l-26.4,19
	c0.3,2.6-1.7,5.1-5.7,5.3l-19.8,0.1l-0.7-9.5L48.6,63l0.7,27H6.2C2.8,90,0,87.2,0,83.8V6.2C0,2.8,2.8,0,6.2,0z"/>
</svg>
