<?xml version="1.0" encoding="utf-8"?>
<!-- Generator: Adobe Illustrator 19.1.0, SVG Export Plug-In . SVG Version: 6.00 Build 0)  -->
<!DOCTYPE svg PUBLIC "-//W3C//DTD SVG 1.1//EN" "http://www.w3.org/Graphics/SVG/1.1/DTD/svg11.dtd">
<svg version="1.1" id="Layer_1" xmlns="http://www.w3.org/2000/svg" xmlns:xlink="http://www.w3.org/1999/xlink" x="0px" y="0px"
	 viewBox="0 0 150 100" style="enable-background:new 0 0 150 100;" xml:space="preserve">
<style type="text/css">
	.st0{fill-rule:evenodd;clip-rule:evenodd;fill:#FFFFFF;}
	.st1{fill-rule:evenodd;clip-rule:evenodd;fill:#FFFFFF;}
	.st2{fill-rule:evenodd;clip-rule:evenodd;fill:none;stroke:#FFFFFF;stroke-width:2;stroke-miterlimit:10;}
	.st3{fill-rule:evenodd;clip-rule:evenodd;fill:#FFFFFF;}
	.st4{fill:#FFFFFF;}
	.st5{fill:#FFFFFF;}
</style>
<g>
	<path class="st3" d="M23.6,10.1c-0.6-4.2-4.4-6.3-8.4-6.3s-7.6,2.1-7.7,6.3c-0.1,2.2,0.7,7.3,1.9,9.3c1,1.7,3.3,3.3,5.7,3.9
		c1.2,0.2,1.4,0.2,2.6,0c2.3-0.6,4.4-2.2,5.2-3.9C23.8,17.4,24,12.3,23.6,10.1L23.6,10.1z M43.9,41.9l26.4-16.4l0.8,1.2L45.6,44.7
		c0.3,2.2-1.1,4.7-4.3,4.4l-13.2-0.5l-0.8-7.1c0,7-0.1,15-0.1,22l-0.9,0l-0.5,13.4l-0.7,17.6c-0.1,1.3-0.4,2.2-1,2.2H17
		c-0.5,0-0.9-0.9-0.9-2.2l-0.3-24.6l-1.7,24.6c-0.1,1.3-0.5,2.2-1.1,2.2H5.9c-0.5,0-0.8-0.9-0.8-2.2l0.2-30.1H4
		c-1.8,0-2.8-0.6-2.8-2.1L0,38.1C-0.2,32.2,3.1,25,9.6,24.6c0.6,0,1.2,0,1.8,0c2.8,3,5.3,7.1,7.3,10.7c-0.2-2.3-0.5-4.5-1.1-6.7
		c0,0-1.1-2.1-1.4-2.6c-0.1-0.2-0.1-0.4,0.1-0.4c0.9-0.1,1.9,0,2.7-0.3c0.1-0.1,0.4,0.1,0.5,0.3c0.3,0.5,0.8,2.4,0.8,2.4
		c0.5,1.1,0.9,2.1,1.3,3.2c0.4,1.1,0.7,2.2,1,3.3c0.4-2.5,0.7-5,0.3-7.5c3.4,3,6.1,9.9,8.3,14L42,41.3
		C42.8,41.3,43.4,41.5,43.9,41.9z"/>
	<path class="st3" d="M67.4,91.5l-0.1-1.2c-1.2-11.7-30.3-11.7-31,0l-0.4,7.1c10.1,3.5,21.4,3.5,31.5,0.1c10,3.4,21.2,3.4,31.3,0
		c10.1,3.4,21.4,3.4,31.5-0.1l-0.4-7.1c-0.7-11.7-29.8-11.6-31,0l-0.1,1.2l-0.1-1.2c-1.2-11.7-29.8-11.6-31,0L67.4,91.5L67.4,91.5z
		 M46.6,5.5c24.3,0,48.6,0,72.9,0V0H46.6V5.5L46.6,5.5z M49.4,7.4v34.5l21.8-15.2l0.5,0.7L49.4,45.1v8.8c22.5,0,44.9,0,67.4,0V7.4
		C94.2,7.4,76,7.4,49.4,7.4L49.4,7.4z M106,66.1c0.4-4.2,4.1-6.3,8.3-6.3c4.2,0,7.9,2.1,8.3,6.3c0.2,2.2-0.3,7.3-1.4,9.3
		c-0.9,1.7-3.2,3.3-5.6,3.9c-1.2,0.2-1.5,0.2-2.7,0c-2.4-0.6-4.6-2.2-5.6-3.9C106.3,73.4,105.8,68.3,106,66.1L106,66.1z M74.8,66.1
		c0.4-4.2,4.1-6.3,8.3-6.3c4.2,0,7.9,2.1,8.3,6.3c0.2,2.2-0.3,7.3-1.4,9.3c-0.9,1.7-3.2,3.3-5.6,3.9c-1.2,0.2-1.5,0.2-2.7,0
		c-2.4-0.6-4.6-2.2-5.6-3.9C75.1,73.4,74.6,68.3,74.8,66.1L74.8,66.1z M43.5,66.1c0.4-4.2,4.1-6.3,8.3-6.3c4.2,0,7.9,2.1,8.3,6.3
		c0.2,2.2-0.3,7.3-1.4,9.3c-0.9,1.7-3.2,3.3-5.6,3.9c-1.2,0.2-1.5,0.2-2.7,0c-2.4-0.6-4.6-2.2-5.6-3.9
		C43.8,73.4,43.3,68.3,43.5,66.1z"/>
</g>
</svg>
