<?xml version="1.0" encoding="utf-8"?>
<!-- Generator: Adobe Illustrator 19.1.0, SVG Export Plug-In . SVG Version: 6.00 Build 0)  -->
<!DOCTYPE svg PUBLIC "-//W3C//DTD SVG 1.1//EN" "http://www.w3.org/Graphics/SVG/1.1/DTD/svg11.dtd">
<svg version="1.1" id="Layer_1" xmlns="http://www.w3.org/2000/svg" xmlns:xlink="http://www.w3.org/1999/xlink" x="0px" y="0px"
	 viewBox="0 0 40 40" style="enable-background:new 0 0 40 40;" xml:space="preserve">
<style type="text/css">
	.st0{fill-rule:evenodd;clip-rule:evenodd;fill:#FFFFFF;}
	.st1{fill-rule:evenodd;clip-rule:evenodd;fill:#231F20;}
	.st2{fill-rule:evenodd;clip-rule:evenodd;fill:none;stroke:#FFFFFF;stroke-width:2;stroke-miterlimit:10;}
	.st3{fill-rule:evenodd;clip-rule:evenodd;fill:#84CFF3;}
	.st4{fill:#84CFF3;}
	.st5{fill:#FFFFFF;}
</style>
<path class="st0" d="M18.6,21.4c0.2-2,2-3,4-3c2,0,3.8,1,4,3c0.1,1-0.1,3.5-0.7,4.4c-0.5,0.8-1.5,1.6-2.7,1.9
	c-0.6,0.1-0.7,0.1-1.3,0c-1.2-0.3-2.2-1.1-2.7-1.9C18.8,24.9,18.5,22.4,18.6,21.4L18.6,21.4z M29.9,34.8l0.1-1.9
	c0.2-4.1-8-5.2-12.3-3.3c2.7,1.3,4.5,3.4,4.3,6.3l0,0.1C24.7,36.1,27.3,35.7,29.9,34.8L29.9,34.8z M4.6,20.3c0.3-2.7,2.7-4,5.3-4
	c2.7,0,5.1,1.3,5.3,4c0.1,1.4-0.2,4.7-0.9,6c-0.6,1.1-2,2.2-3.6,2.5c-0.8,0.1-1,0.1-1.7,0c-1.6-0.4-3-1.4-3.6-2.5
	C4.8,25,4.5,21.7,4.6,20.3L4.6,20.3z M19.8,38.3c-6.6,2.3-13.1,2.2-19.7,0L0,35.8c-0.4-7.5,20.4-7.5,19.9,0L19.8,38.3L19.8,38.3z
	 M14.8,14.3h3.4v3c0,0.4,0.5,0.3,0.7,0l2.5-3h12.3c0.4,0,0.7-0.3,0.7-0.7v-13C34.4,0.2,34,0,33.5,0H15c-0.4,0-0.8,0.2-0.8,0.7v13
	C14.2,14,14.5,14.3,14.8,14.3L14.8,14.3z M31.5,3.2v1.4H17.1V3.2H31.5L31.5,3.2z M31.5,6.4v1.4H17.1V6.4H31.5L31.5,6.4z M24.3,9.5
	v1.4h-7.2V9.5H24.3z"/>
</svg>
